<svg xmlns="http://www.w3.org/2000/svg" xml:space="preserve" viewBox="0 0 345 345"><path d="M198 90h2193c60 0 108 48 108 108v2193c0 60-48 108-108 108H198c-60 0-108-48-108-108V198c0-60 48-108 108-108" style="fill:#232d62;fill-opacity:1;fill-rule:evenodd;stroke:none" transform="matrix(.1333333 0 0 -.1333333 0 345)"/><path d="M2391 2589H198c-109 0-198-89-198-198V198C0 89 89 0 198 0h2193c109 0 198 89 198 198v2193c0 109-89 198-198 198zm0-90c60 0 108-48 108-108V198c0-60-48-108-108-108H198c-60 0-108 48-108 108v2193c0 60 48 108 108 108h2193" style="fill:#efd026;fill-opacity:1;fill-rule:nonzero;stroke:none" transform="matrix(.1333333 0 0 -.1333333 0 345)"/><path d="M2005 1458s-12 1-23 4c-35 7-113 7-194-37l-3-1c-10-6-22 6-17 17l2 2c52 104 214 160 253 154 9-1 24-8 23-40 0-33-12-95-41-99zm176 21c-9 70 76 120 77 153v81l-1 74c-75 28-256 65-363 74-100 9-226 16-366-4l5-1093 2-48c2-22 21-395 339-383 77 3 131 60 153 118 19 52 11 151 11 182-1 38 70 56 52 107-6 17-36 39-113 26-46-9-95-23-146-45l-21-9a24 24 0 0 0-31 34l22 34c40 55 96 102 157 138 70 43 145 72 209 90 13 4 15 12 17 23a386 386 0 0 0 2 26c12 64 81 43 115 102 43 74-102 185-120 320M786 1411l-2 1c-82 44-160 44-195 37-11-3-23-4-23-4-28 4-41 66-41 99 0 32 14 39 23 40 39 6 201-50 254-154l1-2c5-11-6-23-17-17zm286-575-5 1012c-102 20-274 23-434 2-165-21-260-48-313-68l-1-74v-84c1-33 80-75 71-145-18-135-163-247-120-320 30-51 86-42 108-82 35-48 5-119 22-140 12-16 81-26 217 14a679 679 0 0 1 139 63c20 12 44-10 34-32l-18-35a576 576 0 0 0-131-143c-123-97-146-77-160-110-27-65 96-69 90-107-12-86 32-250 178-255 300 0 323 321 323 429v75" style="fill:#efd026;fill-opacity:1;fill-rule:nonzero;stroke:none" transform="matrix(.1333333 0 0 -.1333333 0 345)"/><path d="M319 2254v-362c325 102 775 92 852 29l5-1084v-75c0-179-48-334-154-430h571c-62 50-164 197-164 432l-5 1167c78 61 502 62 834-35v358H319" style="fill:#efd026;fill-opacity:1;fill-rule:evenodd;stroke:none" transform="matrix(.1333333 0 0 -.1333333 0 345)"/><path d="m2398 177-4 55-1 18-7-20-19-51h-12l-19 53-6 18-1-18-4-55h-10l6 81h16l19-51 5-17h1l5 16 19 52h16l7-81zm-88 81v-9h-27v-72h-11v72h-27v9h65" style="fill:#efd026;fill-opacity:1;fill-rule:nonzero;stroke:none" transform="matrix(.1333333 0 0 -.1333333 0 345)"/></svg>